<?xml version="1.0" encoding="UTF-8" standalone="no"?>
<!-- Created with Inkscape (http://www.inkscape.org/) -->

<svg
   xmlns:dc="http://purl.org/dc/elements/1.1/"
   xmlns:cc="http://creativecommons.org/ns#"
   xmlns:rdf="http://www.w3.org/1999/02/22-rdf-syntax-ns#"
   xmlns:svg="http://www.w3.org/2000/svg"
   xmlns="http://www.w3.org/2000/svg"
   xmlns:xlink="http://www.w3.org/1999/xlink"
   xmlns:sodipodi="http://sodipodi.sourceforge.net/DTD/sodipodi-0.dtd"
   xmlns:inkscape="http://www.inkscape.org/namespaces/inkscape"
   width="800px"
   height="800px"
   viewBox="0 0 800 800"
   version="1.1"
   id="SVGRoot"
   inkscape:version="0.92.1 r15371"
   sodipodi:docname="kid.svg">
  <sodipodi:namedview
     id="base"
     pagecolor="#808080"
     bordercolor="#444444"
     borderopacity="1.0"
     inkscape:pageopacity="1.0"
     inkscape:pageshadow="0"
     inkscape:zoom="0.32"
     inkscape:cx="300.64791"
     inkscape:cy="472.64175"
     inkscape:document-units="px"
     inkscape:current-layer="layer1"
     showgrid="false"
     inkscape:window-width="1280"
     inkscape:window-height="961"
     inkscape:window-x="-8"
     inkscape:window-y="-8"
     inkscape:window-maximized="1"
     inkscape:measure-start="298.863,228.429"
     inkscape:measure-end="359.63,336.428"
     showguides="false" />
  <defs
     id="defs13267">
    <linearGradient
       inkscape:collect="always"
       id="linearGradient8467">
      <stop
         style="stop-color:#5eb1bf;stop-opacity:1"
         offset="0"
         id="stop8463" />
      <stop
         style="stop-color:#d7848c;stop-opacity:1"
         offset="1"
         id="stop8465" />
    </linearGradient>
    <radialGradient
       inkscape:collect="always"
       xlink:href="#linearGradient8467"
       id="radialGradient8469"
       cx="-400"
       cy="400"
       fx="-400"
       fy="400"
       r="401.02304"
       gradientTransform="matrix(2.7577186,0.04925254,-0.01796055,1.0056362,711.29471,18.278249)"
       gradientUnits="userSpaceOnUse" />
  </defs>
  <metadata
     id="metadata13270">
    <rdf:RDF>
      <cc:Work
         rdf:about="">
        <dc:format>image/svg+xml</dc:format>
        <dc:type
           rdf:resource="http://purl.org/dc/dcmitype/StillImage" />
        <dc:title />
      </cc:Work>
    </rdf:RDF>
  </metadata>
  <g
     id="layer1"
     inkscape:groupmode="layer"
     inkscape:label="Layer 1">
    <rect
       style="opacity:1;fill:#99b8ae;fill-opacity:1;fill-rule:nonzero;stroke:#0f0f0f;stroke-width:0.37612274;stroke-linecap:round;stroke-linejoin:round;stroke-miterlimit:4;stroke-dasharray:none;stroke-opacity:1"
       id="rect8581"
       width="1863.3301"
       height="1343.4108"
       x="-1219.4211"
       y="-945.99377"
       transform="scale(-1)" />
    <ellipse
       style="opacity:1;fill:url(#radialGradient8469);fill-opacity:1;fill-rule:nonzero;stroke:#a1a1a1;stroke-width:3.98979568;stroke-linecap:round;stroke-linejoin:round;stroke-miterlimit:4;stroke-dasharray:none;stroke-opacity:0.2979798"
       id="path8442"
       ry="323.19641"
       rx="398.0051"
       cy="400.8317"
       cx="-398.97696"
       transform="scale(-1,1)" />
    <g
       id="g8506"
       transform="matrix(0.87395262,0,0,0.87395262,49.480553,66.081233)">
      <ellipse
         ry="22.086945"
         rx="20.805567"
         cy="597.0863"
         cx="142.11304"
         id="path8436-5"
         style="opacity:1;fill:#000000;fill-opacity:1;fill-rule:nonzero;stroke:#000000;stroke-width:1.44833171;stroke-linecap:round;stroke-linejoin:round;stroke-miterlimit:4;stroke-dasharray:none;stroke-opacity:1" />
      <path
         sodipodi:nodetypes="ccsssccasccacccc"
         inkscape:connector-curvature="0"
         id="path8476"
         d="m 397.4169,421.86605 13.4229,-8.84261 c 0,0 1.0787,-1.21865 3.3226,-0.75581 2.2439,0.46284 37.8701,0.95768 53.611,1.63471 2.2291,0.0959 3.0275,3.84617 2.6368,6.15235 -0.6882,4.06223 -8.3008,16.30859 -8.3008,16.30859 0,0 -2.0475,1.77679 -4.3929,1.81613 -2.3454,0.0393 -4.1414,0.39121 -6.0563,-0.25363 -2.1609,-0.72768 -4.7684,-1.88957 -5.6153,-3.90625 l -0.8469,-2.01668 -31.1182,-1.39882 c 0,0 -3.3415,3.0024 -5.3884,3.80613 -1.2534,0.49217 -2.2949,0.58593 -4.0039,0.5371 -1.709,-0.0488 -7.0312,-2.19726 -7.0312,-2.19726 0,0 -2.6069,-1.52967 -3.9158,-3.42597 -0.6067,-2.85841 1.1303,-6.05765 3.6764,-7.45798 z"
         style="fill:#000000;fill-opacity:1;stroke:#000000;stroke-width:1px;stroke-linecap:butt;stroke-linejoin:miter;stroke-opacity:1" />
      <path
         sodipodi:nodetypes="cccccccccc"
         inkscape:connector-curvature="0"
         id="path8434"
         d="m 401.3253,431.93455 -33.6688,22.21529 -2.8963,-5.83145 M 512.3909,246.47042 c 0.1746,-0.0582 -1.107,-5.12081 -0.9323,-5.17901 -15.8356,-33.05415 81.425,-56.62621 54.4982,-11.08773 -1.9477,2.97696 -3.5144,6.32046 -4.7313,8.71128 -0.025,1.17421 -0.3592,3.89547 1.3672,5.62193 -18.2048,23.4771 -40.869,24.29346 -50.2018,1.9335 z"
         style="opacity:1;fill:#ffd4b5;fill-opacity:1;stroke:#000000;stroke-width:2.64566922;stroke-linecap:butt;stroke-linejoin:miter;stroke-miterlimit:4;stroke-dasharray:none;stroke-opacity:1" />
      <path
         sodipodi:nodetypes="aasaaaa"
         inkscape:connector-curvature="0"
         id="path8543"
         d="m 480.6641,215.95312 c -1.7579,-12.71115 0.1761,-27.38273 7.8125,-37.69531 17.9277,-24.21061 60.5468,-47.85156 79.2968,-43.35937 18.75,4.49218 35.7928,23.67525 36.1329,42.1875 0.4614,25.10977 -24.2412,48.10209 -46.875,58.98437 -19.8321,9.53524 -47.2243,11.2554 -66.0157,-0.19531 -6.3906,-3.89416 -9.3263,-12.50886 -10.3515,-19.92188 z"
         style="fill:#e692b0;fill-opacity:1;stroke:#000000;stroke-width:3.02362204;stroke-linecap:butt;stroke-linejoin:miter;stroke-miterlimit:4;stroke-dasharray:none;stroke-opacity:1" />
      <path
         sodipodi:nodetypes="ccscssccscsccccccscc"
         inkscape:connector-curvature="0"
         id="path8522"
         d="m 464.1916,387.33933 114.9049,8.42451 c 0,0 2.0716,40.18908 0.5524,55.65704 -1.5192,15.46796 -7.1816,42.26068 -7.1816,42.26068 0,0 -4.8337,18.92066 -3.6598,33.83618 1.1739,14.91552 1.791,30.62324 -2.1083,53.08382 -3.8993,22.46058 -42.8455,2.29699 -42.8455,2.29699 l -1.881,-9.81652 c 0,0 5.0575,-36.31115 5.0575,-39.07329 0,-2.76213 1.0131,-18.36318 1.0131,-18.36318 0,0 -5.5575,-45.96905 -9.5001,-42.25293 -3.9426,3.71612 -8.7764,34.23772 -8.7764,34.23772 0,0 -3.7288,7.59587 -20.716,19.47305 -14.294,13.12015 -2.3478,4.0051 -21.6827,19.47306 -19.335,15.46796 -31.9027,-20.4398 -31.9027,-20.4398 l 2.6931,-5.10995 c 9.8298,-13.6916 34.5817,-26.52484 34.1674,-43.88984 -0.5711,-13.31603 -4.0497,-20.94182 -9.0232,-38.9534 -2.0489,-7.41992 1.1527,-23.064 1.1527,-23.064 z"
         style="fill:#1ba479;fill-opacity:1;stroke:#000000;stroke-width:3.02362204;stroke-linecap:butt;stroke-linejoin:miter;stroke-miterlimit:4;stroke-dasharray:none;stroke-opacity:1" />
      <path
         inkscape:connector-curvature="0"
         id="path8480"
         d="m 428.9809,410.97654 c 0,0 1.7198,6.60818 6.9679,7.85114 5.248,1.24296 12.4986,-1.65728 12.4986,-1.65728 0,0 -5.7314,17.40145 -5.7314,20.09453 0,2.69309 -5.5243,-1.51917 -5.5243,-1.51917 0,0 -4.5575,-0.41432 -5.5933,-3.1074 -1.0358,-2.69309 -1.243,-2.00255 -1.7954,-3.86699 -0.5524,-1.86444 -1.6573,-11.39381 -1.1048,-12.56772 0.5524,-1.17391 0.2827,-5.22711 0.2827,-5.22711 z"
         style="fill:#ffd4b5;fill-opacity:1;stroke:#000000;stroke-width:1.88976383;stroke-linecap:butt;stroke-linejoin:miter;stroke-miterlimit:4;stroke-dasharray:none;stroke-opacity:1" />
      <path
         sodipodi:nodetypes="cccscc"
         inkscape:connector-curvature="0"
         id="path8470"
         d="m 376.8322,481.85234 3.8723,8.83169 70.6627,-53.93012 c 0,0 2.67,-2.35191 0.098,-5.07813 -1.1767,-1.24727 -6.2672,0.32707 -6.2672,0.32707 z"
         style="fill:#d2d2d2;fill-opacity:1;stroke:#000000;stroke-width:3.02362204;stroke-linecap:butt;stroke-linejoin:miter;stroke-miterlimit:4;stroke-dasharray:none;stroke-opacity:1" />
      <path
         sodipodi:nodetypes="ccsascc"
         inkscape:connector-curvature="0"
         id="path8472"
         d="m 364.7602,448.31839 2.8963,5.83145 33.6688,-22.21529 c 0.9451,-0.62358 1.9535,-2.43953 1.2067,-3.37011 -1.9686,-2.45291 -6.6174,-0.61148 -9.3612,1.18214 l -28.4106,18.57181 v 0"
         style="fill:#d2d2d2;fill-opacity:1;stroke:#000000;stroke-width:3.02362204;stroke-linecap:butt;stroke-linejoin:miter;stroke-miterlimit:4;stroke-dasharray:none;stroke-opacity:1" />
      <path
         sodipodi:nodetypes="ccscsccccccscsc"
         inkscape:connector-curvature="0"
         id="path8474"
         d="m 129.50759,583.78847 -15.87678,-42.59816 c 0,0 -2.8874,-4.5223 0.45497,-7.71004 21.08912,-20.11345 134.32397,-98.99427 166.67582,-110.34941 3.0132,-0.82217 6.3118,-1.6842 9.8184,-1.54604 19.037,0.75006 44.0714,2.75536 63.0117,3.94104 0,0 2.4169,0.48337 3.867,1.58823 1.4501,1.10485 4.6663,7.02918 4.6663,7.02918 l 20.7851,54.66142 c 1.2488,17.61816 -2.8776,16.38142 -5.664,21.14257 -11.8568,13.26446 -109.6995,85.138 -137.96711,103.17343 -10.29887,2.99636 -12.08174,12.30509 -26.33954,9.52189 -14.2578,-2.78321 -16.4062,-2.19727 -16.4062,-2.19727 0,0 -47.82292,-10.54688 -54.31394,-13.30902 -6.49101,-2.76213 -12.71172,-23.34782 -12.71172,-23.34782 z"
         style="fill:#e692b0;fill-opacity:1;stroke:#000000;stroke-width:3.02362204;stroke-linecap:butt;stroke-linejoin:miter;stroke-miterlimit:4;stroke-dasharray:none;stroke-opacity:1" />
      <path
         inkscape:connector-curvature="0"
         id="path8482"
         d="m 650.9485,358.48246 c 0,0 19.4365,3.23806 22.4058,4.61913 2.9693,1.38106 9.4831,8.21183 8.7008,10.35801 -0.7824,2.14617 -2.0026,7.52682 -2.0026,7.52682 0,0 -1.6573,3.45267 -3.2455,3.17645 -1.5882,-0.27621 -3.2167,-0.84758 -3.2167,-0.84758 0,0 -1.8242,0.29516 -3.6196,-1.08591 -1.7954,-1.38107 -3.9363,-2.62833 -3.9363,-2.62833 0,0 -4.6263,-0.96245 -7.2503,-0.41002 -2.6241,0.55243 -4.4665,0.81308 -4.4665,0.81308 0,0 -4.8557,0.42988 -7.825,0.0156 -2.9693,-0.41432 4.9028,-8.0102 4.9028,-8.0102 z"
         style="fill:#ffd4b5;fill-opacity:1;stroke:#000000;stroke-width:1.88976383;stroke-linecap:butt;stroke-linejoin:miter;stroke-miterlimit:4;stroke-dasharray:none;stroke-opacity:1" />
      <path
         sodipodi:nodetypes="cscccscsssccc"
         inkscape:connector-curvature="0"
         id="path8484"
         d="m 462.1094,537.53516 c 0,0 7.1289,3.32031 3.8086,11.13281 -3.3203,7.8125 -5.7626,14.95429 -5.7626,14.95429 0,0 5.6649,44.61602 6.8367,45.98321 1e-4,2.83203 1e-4,2.83203 1e-4,2.83203 0,0 -0.6899,3.45553 -7.5715,4.70628 -6.8816,1.25075 -15.319,-1.22788 -28.2684,-10.468 -2.6636,-2.63196 -7.1607,-8.56572 -12.3911,-16.64874 -5.6943,-8.79968 -10.5927,-19.28218 -12.5054,-24.39184 -2.0564,-5.49367 -2.8262,-6.91499 -3.0487,-8.91442 -0.1736,-1.56074 0.365,-3.59995 2.151,-8.62514 8.2734,-9.65969 32.8004,-27.06893 32.8004,-27.06893 z"
         style="fill:#e692b0;fill-opacity:1;stroke:#000000;stroke-width:3.02362204;stroke-linecap:butt;stroke-linejoin:miter;stroke-miterlimit:4;stroke-dasharray:none;stroke-opacity:1" />
      <path
         sodipodi:nodetypes="csscaaacc"
         inkscape:connector-curvature="0"
         id="path8486"
         d="m 403.7109,558.62891 c 0,0 -2.272,-5.63685 1.6472,-10.53327 3.9192,-4.89642 21.0691,22.73813 30.4818,35.72858 1.7157,2.36781 6.0546,6.34765 6.0546,6.34765 0,0 15.4535,14.02307 20.0196,23.14454 0.4307,0.86036 1.0952,1.9855 0.6161,2.8199 -0.5425,0.94489 -2.0221,1.07645 -3.1095,1.00747 -11.3969,-0.72298 -21.2363,-2.89245 -30.9958,-14.59326 -13.2813,-15.42968 -24.714,-43.92161 -24.714,-43.92161 z"
         style="fill:#000000;fill-opacity:1;stroke:#000000;stroke-width:1px;stroke-linecap:butt;stroke-linejoin:miter;stroke-opacity:1" />
      <path
         sodipodi:nodetypes="ccccsssscszc"
         inkscape:connector-curvature="0"
         id="path8503"
         d="m 521.9727,573.08203 c 0,0 2.0507,-4.58984 21.3867,6.25 19.3359,10.83984 23.3398,1.26953 23.3398,1.26953 l 0.7272,12.24068 c 0,0 12.8277,4.0532 18.7135,7.1125 3.5205,1.82991 6.0546,6.84833 5.1779,10.71801 -0.4035,1.78111 -1.8398,5.13682 -3.6068,5.99825 -2.2061,1.07558 -3.8919,1.3781 -6.1632,1.82459 -4.0396,0.7941 -54.5867,3.34907 -54.5867,3.34907 0,0 -4.9329,-1.13658 -5.5933,-3.17646 -0.888,-2.74277 -0.3634,-2.27323 -0.4143,-9.87463 -0.051,-7.6014 1.0192,-35.71154 1.0192,-35.71154 z"
         style="fill:#e692b0;fill-opacity:1;stroke:#000000;stroke-width:3.02362204;stroke-linecap:butt;stroke-linejoin:miter;stroke-miterlimit:4;stroke-dasharray:none;stroke-opacity:1" />
      <path
         sodipodi:nodetypes="cccccccccccsccscccssccccccscscssacccscccscc"
         inkscape:connector-curvature="0"
         id="path8516"
         d="m 428.8086,416.24609 6.2012,6.49414 5.4199,0.53711 6.2012,-0.53711 3.955,-12.64648 5.42,-28.85742 3.955,-23.24219 6.4454,-18.84766 3.125,-7.71484 0.049,6.39648 -2.5667,19.15628 c 0,0 -3.5857,19.5156 -3.5857,22.93357 0,3.41797 -1.0594,22.9862 -1.0594,22.9862 0,0 -0.049,5.44141 2.0869,12.2153 17.1671,-1.86247 35.0565,15.48209 58.9823,12.25944 23.9258,-3.22266 32.8318,-3.97672 35.9808,-7.64952 0.8308,-4.97978 7.7692,-22.13564 7.7692,-22.13564 l 4.5898,34.96094 c 0,0 1.315,6.65623 3.8155,8.49609 1.2086,0.88924 15.6551,-0.55433 14.9345,-2.73437 -6.4922,-19.64212 -7.7148,-42.28516 -7.7148,-42.28516 l -3.7109,-33.59375 -3.3203,-30.56641 18.576,24.46328 c 0,0 35.3302,31.00547 51.9318,23.5836 16.6015,-7.42188 4.6594,-21.43551 4.6594,-21.43551 0,0 -20.1336,-13.94851 -22.0645,-18.37564 -1.9309,-4.42713 -20.9281,-27.02393 -20.9281,-27.02393 0,0 -9.7888,-34.66583 -7.3587,-45.29233 2.4301,-10.6265 -13.3902,-15.80228 -13.3902,-15.80228 0,0 -16.7091,-3.37928 -24.6143,-7.45136 -3.491,-1.79828 -10.4229,1.45029 -17.4029,3.67584 -8.8258,2.81405 -11.4832,5.51307 -17.5531,5.04505 -5.4089,-0.41705 -14.7674,-6.84034 -14.7674,-6.84034 l -3.7873,0.78565 -24.414,4.10157 c 0,0 -4.6875,1.26953 -7.4219,7.03125 -2.7344,5.76172 -24.9023,50.39062 -24.9023,50.39062 L 437.6955,339 c 0,0 -4.7851,16.01562 -5.5664,20.3125 -0.7812,4.29687 -5.2218,42.29292 -3.148,51.66404 2.0738,9.37112 -0.1723,5.26955 -0.1723,5.26955 z"
         style="fill:#5ebfc9;fill-opacity:1;stroke:#000000;stroke-width:2.64566922;stroke-linecap:butt;stroke-linejoin:miter;stroke-miterlimit:4;stroke-dasharray:none;stroke-opacity:1" />
      <path
         sodipodi:nodetypes="caaacccccc"
         inkscape:connector-curvature="0"
         id="path8539"
         d="m 492.5777,194.95703 c 0,0 -1.5366,-28.30945 5.7141,-39.44011 8.3757,-12.8579 23.6644,-24.09534 39.0056,-24.45136 12.7576,-0.29606 25.3849,8.83301 33.3451,18.80692 4.803,6.01805 6.6032,22.13533 6.6032,22.13533 l 2.6367,10.83985 -37.6605,35.44895 -30.7978,-1.24296 -18.944,-14.57709 z"
         style="fill:#e692b0;fill-opacity:1;stroke:#000000;stroke-width:2.64566922;stroke-linecap:butt;stroke-linejoin:miter;stroke-miterlimit:4;stroke-dasharray:none;stroke-opacity:1" />
      <path
         sodipodi:nodetypes="ccsccscc"
         inkscape:connector-curvature="0"
         id="path8537"
         d="m 492.5781,194.95703 -0.098,7.51953 c 0,0 15.3828,32.52123 51.5625,20.21485 17.8424,-6.06903 35.2881,-29.66612 35.8398,-39.84375 l -2.6367,-10.83985 c -10.11587,19.10331 -21.85712,35.51763 -40.0391,42.38281 -27.22512,10.27971 -44.6289,-19.43359 -44.6289,-19.43359 z"
         style="fill:#010105;fill-opacity:1;stroke:#000000;stroke-width:1px;stroke-linecap:butt;stroke-linejoin:miter;stroke-opacity:1" />
      <path
         sodipodi:nodetypes="ccccccccc"
         inkscape:connector-curvature="0"
         id="path8583"
         d="m 202.14952,587.78696 -76.11639,-13.83617 -2.70935,-6.34043 78.04989,13.4909 c 11.65272,1.41602 13.18801,-1.84464 22.22495,-9.36762 l 149.39437,-108.43747 2.70935,6.34043 c -50.45609,34.37479 -98.93828,74.06268 -149.39437,108.43747 -11.24416,8.37673 -11.97891,11.98117 -24.15845,9.71289 z"
         style="fill:#5eb1bf;fill-opacity:1;stroke:#000000;stroke-width:1.88976383;stroke-linecap:butt;stroke-linejoin:miter;stroke-miterlimit:4;stroke-dasharray:none;stroke-opacity:1" />
      <ellipse
         ry="22.086945"
         rx="20.805567"
         cy="615.82965"
         cx="219.09184"
         id="path8436"
         style="opacity:1;fill:#000000;fill-opacity:1;fill-rule:nonzero;stroke:#000000;stroke-width:1.44833171;stroke-linecap:round;stroke-linejoin:round;stroke-miterlimit:4;stroke-dasharray:none;stroke-opacity:1" />
    </g>
    <rect
       style="opacity:1;fill:#e692b0;fill-opacity:0.66161613;fill-rule:nonzero;stroke:#a1a1a1;stroke-width:3.50761414;stroke-linecap:round;stroke-linejoin:round;stroke-miterlimit:4;stroke-dasharray:none;stroke-opacity:0.2979798"
       id="rect8510"
       width="697.29797"
       height="302.01273"
       x="-531.30066"
       y="-316.08173"
       ry="30.180079" />
    <text
       xml:space="preserve"
       style="font-style:normal;font-weight:normal;font-size:54.78841782px;line-height:1.25;font-family:sans-serif;letter-spacing:0px;word-spacing:0px;fill:#ffffff;fill-opacity:1;stroke:none;stroke-width:1.36971045"
       x="-460.9375"
       y="-234.48836"
       id="text8514"><tspan
         sodipodi:role="line"
         id="tspan8512"
         x="-460.9375"
         y="-234.48836"
         style="stroke-width:1.36971045"><tspan
   style="-inkscape-font-specification:'sans-serif Bold';font-family:sans-serif;font-weight:bold;font-style:normal;font-stretch:normal;font-variant:normal"
   id="tspan8520">Triage #1</tspan> </tspan><tspan
         sodipodi:role="line"
         x="-460.9375"
         y="-166.00284"
         id="tspan8516"
         style="stroke-width:1.36971045" /><tspan
         sodipodi:role="line"
         x="-460.9375"
         y="-97.517311"
         id="tspan8518"
         style="stroke-width:1.36971045">Whimsical Theme</tspan></text>
  </g>
</svg>
